# xmcd
#
# Track frame offsets:
#	150
#	18300
#	30735
#	42707
#	55372
#	71435
#	85802
#	97322
#	107730
#	123480
#	139552
#
# Disc length: 2015 seconds
#
# Revision: 1
# Processed by: cddbd v1.5.1PL0 Copyright (c) Steve Scherf et al.
# Submitted via: audiograbber 1.83.01
#
DISCID=9a07dd0b
DTITLE=Faron YOUNG - Here's to you
DYEAR=1900
DGENRE=Country
TTITLE0=Here's to you
TTITLE1=You're just another beer drinking song
TTITLE2=Let me walk in
TTITLE3=A hard bridge to cross
TTITLE4=Baxter Hill
TTITLE5=After the loving
TTITLE6=One away from one too many
TTITLE7=Stop and take the time
TTITLE8=Misty morning rain
TTITLE9=Twin fiddles turn me on
TTITLE10=A waste of love
EXTD=
EXTT0=
EXTT1=
EXTT2=
EXTT3=
EXTT4=
EXTT5=
EXTT6=
EXTT7=
EXTT8=
EXTT9=
EXTT10=
PLAYORDER=
